<svg viewBox="0 0 1280 365" version="1.1" xmlns="http://www.w3.org/2000/svg" xmlns:xlink="http://www.w3.org/1999/xlink">
            <defs>
                <linearGradient x1="50%" y1="-1.91737925e-15%" x2="50%" y2="100%" id="linearGradient-1">
                    <stop stop-color="#2CA3FF" stop-opacity="0.800894475" offset="0%"></stop>
                    <stop stop-color="#BBE1FF" stop-opacity="0" offset="100%"></stop>
                </linearGradient>
                <circle id="path-2" cx="5" cy="201" r="5"></circle>
                <circle id="path-3" cx="109.909091" cy="182.460465" r="5"></circle>
                <circle id="path-4" cx="214.818182" cy="132.948837" r="5"></circle>
                <circle id="path-5" cx="319.727273" cy="110.246512" r="5"></circle>
                <circle id="path-6" cx="425" cy="132.706977" r="5"></circle>
                <circle id="path-7" cx="530" cy="120.04186" r="5"></circle>
                <circle id="path-8" cx="634" cy="164.27907" r="5"></circle>
                <circle id="path-9" cx="739" cy="239.595349" r="5"></circle>
                <circle id="path-10" cx="844" cy="219" r="5"></circle>
                <circle id="path-11" cx="949" cy="156.204651" r="5"></circle>
                <circle id="path-12" cx="1054" cy="70.1069767" r="5"></circle>
                <circle id="path-13" cx="1161" cy="5.11627907" r="5"></circle>
            </defs>
            <g id="mockup" stroke="none" stroke-width="1" fill="none" fill-rule="evenodd">
                <g id="landing-page-mockup-enterprise" transform="translate(0.000000, -325.000000)">
                    <g id="hero">
                        <g id="graph" transform="translate(0.000000, 326.000000)">
                            <path d="M0,274.998934 C6.67071855,246.357327 28.5079151,232.036524 65.5115896,232.036524 C121.017101,232.036524 121.642731,212.634391 171.324932,212.634391 C221.007134,212.634391 224.146724,163.585448 275.955683,163.585448 C327.764642,163.585448 328.277734,141.020836 381.540137,141.020836 C434.802539,141.020836 435.271761,163.585448 486.268165,163.585448 C537.26457,163.585448 537.396181,150.931717 591.318545,150.931717 C645.24091,150.931717 644.950985,196.009761 695.337019,196.009761 C745.723053,196.009761 747.706755,270.547369 799.7694,270.547369 C851.832044,270.547369 851.677544,249.578936 905.32715,249.578936 C958.976756,249.578936 959.281941,186.346523 1010.53775,186.346523 C1061.79356,186.346523 1091.65019,101.503201 1115.0903,101.503201 C1130.71704,101.503201 1166.60234,79.7644957 1222.7462,36.2870856 L1280,0.336299079 L1280,363.61892 L0,363.61892 L0,274.998934 Z" id="Path-5" fill="url(#linearGradient-1)"></path>
                            <path d="M0,274.998934 C6.67071855,246.357327 28.5079151,232.036524 65.5115896,232.036524 C121.017101,232.036524 121.642731,212.634391 171.324932,212.634391 C221.007134,212.634391 224.146724,163.585448 275.955683,163.585448 C327.764642,163.585448 328.277734,141.020836 381.540137,141.020836 C434.802539,141.020836 435.271761,163.585448 486.268165,163.585448 C537.26457,163.585448 537.396181,150.931717 591.318545,150.931717 C645.24091,150.931717 644.950985,196.009761 695.337019,196.009761 C745.723053,196.009761 747.706755,270.547369 799.7694,270.547369 C851.832044,270.547369 851.677544,249.578936 905.32715,249.578936 C958.976756,249.578936 959.281941,186.346523 1010.53775,186.346523 C1061.79356,186.346523 1091.65019,101.503201 1115.0903,101.503201 C1130.71704,101.503201 1166.60234,79.7644957 1222.7462,36.2870856 L1280,0.336299079" id="Path-5" stroke="#0087EF" stroke-width="3"></path>
                            <g id="dots-n-lines" transform="translate(61.000000, 31.000000)">
                                <path d="M5,206 L5,332" id="Line-6" stroke="#000000" stroke-width="2" opacity="0.0299999993" stroke-linecap="square"></path>
                                <path d="M110,184 L110,332" id="Line-6" stroke="#000000" stroke-width="2" opacity="0.0299999993" stroke-linecap="square"></path>
                                <path d="M215,135 L215,332" id="Line-6" stroke="#000000" stroke-width="2" opacity="0.0299999993" stroke-linecap="square"></path>
                                <path d="M320,112 L320,332" id="Line-6" stroke="#000000" stroke-width="2" opacity="0.0299999993" stroke-linecap="square"></path>
                                <path d="M425,135 L425,332" id="Line-6" stroke="#000000" stroke-width="2" opacity="0.0299999993" stroke-linecap="square"></path>
                                <path d="M530,122 L530,332" id="Line-6" stroke="#000000" stroke-width="2" opacity="0.0299999993" stroke-linecap="square"></path>
                                <path d="M634,166 L634,332" id="Line-6" stroke="#000000" stroke-width="2" opacity="0.0299999993" stroke-linecap="square"></path>
                                <path d="M739,242 L739,332" id="Line-6" stroke="#000000" stroke-width="2" opacity="0.0299999993" stroke-linecap="square"></path>
                                <path d="M844,221 L844,332" id="Line-6" stroke="#000000" stroke-width="2" opacity="0.0299999993" stroke-linecap="square"></path>
                                <path d="M949,159 L949,332" id="Line-6" stroke="#000000" stroke-width="2" opacity="0.0299999993" stroke-linecap="square"></path>
                                <path d="M1054,73 L1054,332" id="Line-6" stroke="#000000" stroke-width="2" opacity="0.0299999993" stroke-linecap="square"></path>
                                <path d="M1161,7 L1161,332" id="Line-6" stroke="#000000" stroke-width="2" opacity="0.0299999993" stroke-linecap="square"></path>
                                <g id="Oval">
                                    <use fill="#BBE1FF" fill-rule="evenodd" xlink:href="#path-2"></use>
                                    <circle stroke="#0087EF" stroke-width="3" cx="5" cy="201" r="6.5"></circle>
                                </g>
                                <g id="Oval">
                                    <use fill="#BBE1FF" fill-rule="evenodd" xlink:href="#path-3"></use>
                                    <circle stroke="#0087EF" stroke-width="3" cx="109.909091" cy="182.460465" r="6.5"></circle>
                                </g>
                                <g id="Oval">
                                    <use fill="#BBE1FF" fill-rule="evenodd" xlink:href="#path-4"></use>
                                    <circle stroke="#0087EF" stroke-width="3" cx="214.818182" cy="132.948837" r="6.5"></circle>
                                </g>
                                <g id="Oval">
                                    <use fill="#BBE1FF" fill-rule="evenodd" xlink:href="#path-5"></use>
                                    <circle stroke="#0087EF" stroke-width="3" cx="319.727273" cy="110.246512" r="6.5"></circle>
                                </g>
                                <g id="Oval">
                                    <use fill="#BBE1FF" fill-rule="evenodd" xlink:href="#path-6"></use>
                                    <circle stroke="#0087EF" stroke-width="3" cx="425" cy="132.706977" r="6.5"></circle>
                                </g>
                                <g id="Oval">
                                    <use fill="#BBE1FF" fill-rule="evenodd" xlink:href="#path-7"></use>
                                    <circle stroke="#0087EF" stroke-width="3" cx="530" cy="120.04186" r="6.5"></circle>
                                </g>
                                <g id="Oval-Copy">
                                    <use fill="#BBE1FF" fill-rule="evenodd" xlink:href="#path-8"></use>
                                    <circle stroke="#0087EF" stroke-width="3" cx="634" cy="164.27907" r="6.5"></circle>
                                </g>
                                <g id="Oval-Copy-2">
                                    <use fill="#BBE1FF" fill-rule="evenodd" xlink:href="#path-9"></use>
                                    <circle stroke="#0087EF" stroke-width="3" cx="739" cy="239.595349" r="6.5"></circle>
                                </g>
                                <g id="Oval-Copy-3">
                                    <use fill="#BBE1FF" fill-rule="evenodd" xlink:href="#path-10"></use>
                                    <circle stroke="#0087EF" stroke-width="3" cx="844" cy="219" r="6.5"></circle>
                                </g>
                                <g id="Oval-Copy-4">
                                    <use fill="#BBE1FF" fill-rule="evenodd" xlink:href="#path-11"></use>
                                    <circle stroke="#0087EF" stroke-width="3" cx="949" cy="156.204651" r="6.5"></circle>
                                </g>
                                <g id="Oval-Copy-5">
                                    <use fill="#BBE1FF" fill-rule="evenodd" xlink:href="#path-12"></use>
                                    <circle stroke="#0087EF" stroke-width="3" cx="1054" cy="70.1069767" r="6.5"></circle>
                                </g>
                                <g id="Oval-Copy-6">
                                    <use fill="#BBE1FF" fill-rule="evenodd" xlink:href="#path-13"></use>
                                    <circle stroke="#0087EF" stroke-width="3" cx="1161" cy="5.11627907" r="6.5"></circle>
                                </g>
                            </g>
                        </g>
                    </g>
                </g>
            </g>
        </svg>