<svg width="100%" height="100%" viewBox="0 0 495 477" version="1.1" xmlns="http://www.w3.org/2000/svg" xmlns:xlink="http://www.w3.org/1999/xlink">
    <defs>
        <path d="M245.986939,169.455369 C251.641988,169.455369 319.171556,217.713439 321.116654,223.657897 C323.061753,229.602356 297.397974,307.767811 292.419657,311.35943 C287.44134,314.95105 204.934791,315.241256 199.554222,311.35943 C194.173653,307.477605 168.560475,230.677046 170.857225,223.657897 C173.153975,216.638749 240.331891,169.455369 245.986939,169.455369 Z" id="path-1"></path>
        <filter x="-28.2%" y="-22.5%" width="156.5%" height="158.7%" filterUnits="objectBoundingBox" id="filter-2">
            <feOffset dx="0" dy="3" in="SourceAlpha" result="shadowOffsetOuter1"></feOffset>
            <feGaussianBlur stdDeviation="2.5" in="shadowOffsetOuter1" result="shadowBlurOuter1"></feGaussianBlur>
            <feColorMatrix values="0 0 0 0 0   0 0 0 0 0   0 0 0 0 0  0 0 0 0.2 0" type="matrix" in="shadowBlurOuter1" result="shadowMatrixOuter1"></feColorMatrix>
            <feOffset dx="0" dy="1" in="SourceAlpha" result="shadowOffsetOuter2"></feOffset>
            <feGaussianBlur stdDeviation="9" in="shadowOffsetOuter2" result="shadowBlurOuter2"></feGaussianBlur>
            <feColorMatrix values="0 0 0 0 0   0 0 0 0 0   0 0 0 0 0  0 0 0 0.12 0" type="matrix" in="shadowBlurOuter2" result="shadowMatrixOuter2"></feColorMatrix>
            <feOffset dx="0" dy="6" in="SourceAlpha" result="shadowOffsetOuter3"></feOffset>
            <feGaussianBlur stdDeviation="5" in="shadowOffsetOuter3" result="shadowBlurOuter3"></feGaussianBlur>
            <feColorMatrix values="0 0 0 0 0   0 0 0 0 0   0 0 0 0 0  0 0 0 0.14 0" type="matrix" in="shadowBlurOuter3" result="shadowMatrixOuter3"></feColorMatrix>
            <feMerge>
                <feMergeNode in="shadowMatrixOuter1"></feMergeNode>
                <feMergeNode in="shadowMatrixOuter2"></feMergeNode>
                <feMergeNode in="shadowMatrixOuter3"></feMergeNode>
            </feMerge>
        </filter>
        <linearGradient x1="50%" y1="100%" x2="50%" y2="50%" id="linearGradient-3">
            <stop stop-color="#2CA3FF" offset="0%"></stop>
            <stop stop-color="#6A7BFF" offset="100%"></stop>
        </linearGradient>
    </defs>
    <g id="mockup" stroke="none" stroke-width="1" fill="none" fill-rule="evenodd">
        <g id="landing-page-mockup-enterprise" transform="translate(-711.000000, -738.000000)">
            <g id="value-props" transform="translate(73.000000, 739.000000)">
                <g id="graph-illustration" transform="translate(639.000000, 0.000000)">
                    <g id="graph">
                        <g id="bg-polygons" stroke="#000000">
                            <path d="M246.004547,101.504442 C256.600337,101.504442 383.129594,191.924949 386.7741,203.063002 C390.418605,214.201056 342.332721,360.658634 333.004915,367.388204 C323.677109,374.117774 169.085679,374.661529 159.004179,367.388204 C148.922678,360.11488 100.931605,216.214688 105.234994,203.063002 C109.538384,189.911317 235.408757,101.504442 246.004547,101.504442 Z" id="Polygon" opacity="0.049999997"></path>
                            <path d="M246.043383,81 C258.216921,81 403.586801,185.047829 407.773985,197.864504 C411.961169,210.68118 356.71514,379.211457 345.998392,386.955244 C335.281645,394.699032 157.671043,395.324736 146.088374,386.955244 C134.505705,378.585753 79.3686023,212.998287 84.3127811,197.864504 C89.2569598,182.730721 233.869845,81 246.043383,81 Z" id="Polygon" stroke-width="1.15" opacity="0.0399999991"></path>
                            <path d="M246.549944,58 C260.564542,58 427.919373,177.721701 432.739804,192.469093 C437.560235,207.216486 373.959096,401.134337 361.621606,410.044656 C349.284116,418.954975 144.812652,419.674936 131.478282,410.044656 C118.143913,400.414376 54.6681749,209.882645 60.3600844,192.469093 C66.0519938,175.055542 232.535346,58 246.549944,58 Z" id="Polygon" stroke-width="1.3225" opacity="0.0299999993"></path>
                            <path d="M246.557443,31 C262.676109,31 455.156598,168.729979 460.70074,185.695642 C466.244882,202.661305 393.095046,425.747858 378.905279,435.998449 C364.715512,446.249039 129.545918,447.077294 114.209606,435.998449 C98.8732945,424.919603 25.8676864,205.728502 32.4141453,185.695642 C38.9606042,165.662782 230.438776,31 246.557443,31 Z" id="Polygon" stroke-width="1.520875" opacity="0.0199999996"></path>
                            <path d="M246.566012,0 C265.089328,0 486.284855,158.40615 492.656095,177.918717 C499.027335,197.431283 414.964703,454.007827 398.658048,465.797247 C382.351392,477.586667 112.098223,478.539261 94.4739766,465.797247 C76.8497301,453.055233 -7.04715755,200.958931 0.475929215,177.918717 C7.99901598,154.878502 228.042697,2.24027273e-15 246.566012,0 Z" id="Polygon" stroke-width="1.74900625" opacity="0.00999999978"></path>
                        </g>
                        <g id="Polygon">
                            <use fill="black" fill-opacity="1" filter="url(#filter-2)" xlink:href="#path-1"></use>
                            <use fill="#0087EF" fill-rule="evenodd" xlink:href="#path-1"></use>
                        </g>
                        <path d="M245.937366,160 C251.792425,160 321.710402,209.964878 323.724295,216.119582 C325.738188,222.274287 299.166724,303.204325 294.012332,306.922974 C288.85794,310.641623 203.433271,310.942093 197.8624,306.922974 C192.291529,302.903855 165.772455,223.386987 168.150437,216.119582 C170.528419,208.852178 240.082308,160 245.937366,160 Z" id="Polygon" fill="url(#linearGradient-3)"></path>
                        <circle id="circle-Engage-Copy" stroke="#0087EF" stroke-width="5" fill="#FFFFFF" cx="246" cy="128" r="10"></circle>
                        <circle id="circle-Attribute" stroke="#0087EF" stroke-width="3" fill="#FFFFFF" cx="314" cy="337" r="6"></circle>
                        <circle id="circle-Amplify" stroke="#0087EF" stroke-width="3" fill="#FFFFFF" cx="355" cy="209" r="6"></circle>
                        <circle id="circle-Monetize" stroke="#0087EF" stroke-width="3" fill="#FFFFFF" cx="137" cy="208" r="6"></circle>
                        <circle id="circle-Analyze" stroke="#0087EF" stroke-width="3" fill="#FFFFFF" cx="179" cy="337" r="6"></circle>
                    </g>
                    <text id="Engage-Copy" class="active" font-family="Roboto-Medium, Roboto" font-size="41.7999992" font-weight="400" line-spacing="50" letter-spacing="-1" fill="#0087EF">
                        <tspan x="179.340138" y="97">Engage</tspan>
                    </text>
                    <text id="Analyze" class="non-active" font-family="Roboto-Medium, Roboto" font-size="20.1599998" font-weight="400" line-spacing="30" fill="#0087EF">
                        <tspan x="105.27211" y="368">Analyze</tspan>
                    </text>
                    <text id="Monetize" class="non-active" font-family="Roboto-Medium, Roboto" font-size="20.1599998" font-weight="400" line-spacing="30" fill="#0087EF">
                        <tspan x="36.0164066" y="212">Monetize</tspan>
                    </text>
                    <text id="Attribute" class="non-active" font-family="Roboto-Medium, Roboto" font-size="20.1599998" font-weight="400" line-spacing="30" fill="#0087EF">
                        <tspan x="314.433047" y="368">Attribute</tspan>
                    </text>
                    <text id="Amplify" class="non-active" font-family="Roboto-Medium, Roboto" font-size="20.1599998" font-weight="400" line-spacing="30" fill="#0087EF">
                        <tspan x="372" y="212">Amplify</tspan>
                    </text>
                    <g id="arrows" transform="translate(136.000000, 136.000000)">
                        <path d="M-23.8188057,137.862775 L66.1811943,137.862775" id="Path-3" stroke="#ADBACC" stroke-width="3" stroke-linecap="round" stroke-linejoin="round" transform="translate(21.181194, 137.862775) rotate(-288.000000) translate(-21.181194, -137.862775) "></path>
                        <path d="M154.181194,135.960662 L244.181194,135.960662" id="Path-3" stroke="#ADBACC" stroke-width="3" stroke-linecap="round" stroke-linejoin="round" transform="translate(199.181194, 135.960662) scale(1, -1) rotate(-288.000000) translate(-199.181194, -135.960662) "></path>
                        <path d="M65,202 L155,202" id="Path-3" stroke="#ADBACC" stroke-width="3" stroke-linecap="round" stroke-linejoin="round"></path>
                        <path d="M121.520262,33.1134553 L211.520262,33.1134553" id="Path-3" stroke="#ADBACC" stroke-width="3" stroke-linecap="round" stroke-linejoin="round" transform="translate(166.520262, 33.113455) rotate(-144.000000) translate(-166.520262, -33.113455) "></path>
                        <path d="M7.52026151,33.2890258 L97.5202615,33.2890258" id="Path-3" stroke="#ADBACC" stroke-width="3" stroke-linecap="round" stroke-linejoin="round" transform="translate(52.520262, 33.289026) scale(1, -1) rotate(-144.000000) translate(-52.520262, -33.289026) "></path>
                        <path d="M15.3181871,102.843417 C15.8464312,103.723631 15.2124226,104.850051 14.181364,104.850051 L2.9610878,104.850051 C1.93002915,104.850051 1.29602055,103.723631 1.82426473,102.843417 L7.43555871,93.4922234 C7.95051009,92.635127 9.19309759,92.6368609 9.70689308,93.4922234 L15.3181871,102.843417 Z" id="Shape-Copy-2" fill="#ADBACC" fill-rule="nonzero" transform="translate(8.571226, 98.850051) rotate(-378.000000) translate(-8.571226, -98.850051) "></path>
                        <path d="M193.318187,178.966752 C193.846431,179.846966 193.212423,180.973386 192.181364,180.973386 L180.961088,180.973386 C179.930029,180.973386 179.296021,179.846966 179.824265,178.966752 L185.435559,169.615559 C185.95051,168.758462 187.193098,168.760196 187.706893,169.615559 L193.318187,178.966752 Z" id="Shape-Copy-2" fill="#ADBACC" fill-rule="nonzero" transform="translate(186.571226, 174.973386) scale(1, -1) rotate(-378.000000) translate(-186.571226, -174.973386) "></path>
                        <path d="M75.7469612,205.930564 C76.2752053,206.810778 75.6411967,207.937198 74.6101381,207.937198 L63.3898619,207.937198 C62.3588033,207.937198 61.7247947,206.810778 62.2530388,205.930564 L67.8643328,196.57937 C68.3792842,195.722274 69.6218717,195.724008 70.1356672,196.57937 L75.7469612,205.930564 Z" id="Shape-Copy-2" fill="#ADBACC" fill-rule="nonzero" transform="translate(69.000000, 201.937198) rotate(-90.000000) translate(-69.000000, -201.937198) "></path>
                        <path d="M206.400005,61.2568243 C206.928249,62.1370386 206.294241,63.2634586 205.263182,63.2634586 L194.042906,63.2634586 C193.011847,63.2634586 192.377839,62.1370386 192.906083,61.2568243 L198.517377,51.9056309 C199.032328,51.0485345 200.274916,51.0502683 200.788711,51.9056309 L206.400005,61.2568243 Z" id="Shape-Copy-2" fill="#ADBACC" fill-rule="nonzero" transform="translate(199.653044, 57.263459) rotate(-234.000000) translate(-199.653044, -57.263459) "></path>
                        <path d="M92.4000053,13.1323882 C92.9282495,14.0126025 92.2942409,15.1390225 91.2631822,15.1390225 L80.0429061,15.1390225 C79.0118474,15.1390225 78.3778388,14.0126025 78.906083,13.1323882 L84.517377,3.78119481 C85.0323284,2.92409841 86.2749159,2.92583225 86.7887113,3.78119481 L92.4000053,13.1323882 Z" id="Shape-Copy-2" fill="#ADBACC" fill-rule="nonzero" transform="translate(85.653044, 9.139023) scale(1, -1) rotate(-234.000000) translate(-85.653044, -9.139023) "></path>
                    </g>
                </g>
            </g>
        </g>
    </g>
</svg>