<?xml version="1.0" encoding="UTF-8" standalone="no"?>
<svg width="24px" height="24px" viewBox="0 0 24 24" version="1.1" xmlns="http://www.w3.org/2000/svg" xmlns:xlink="http://www.w3.org/1999/xlink">
    <g id="illustration" stroke="none" stroke-width="1" fill="none" fill-rule="evenodd">
        <g id="Artboard">
            <path d="M12,22.1538462 L12,22.1538462 C17.6078144,22.1538462 22.1538462,17.6078144 22.1538462,12 C22.1538462,6.39218562 17.6078144,1.84615385 12,1.84615385 C6.39218562,1.84615385 1.84615385,6.39218562 1.84615385,12 C1.84615385,17.6078144 6.39218562,22.1538462 12,22.1538462 L12,22.1538462 L12,22.1538462 Z M12.9230769,11.0769231 L12.9230769,7.38461538 L11.0769231,7.38461538 L11.0769231,11.0769231 L7.38461538,11.0769231 L7.38461538,12.9230769 L11.0769231,12.9230769 L11.0769231,16.6153846 L12.9230769,16.6153846 L12.9230769,12.9230769 L16.6153846,12.9230769 L16.6153846,11.0769231 L12.9230769,11.0769231 L12.9230769,11.0769231 Z M12,24 C5.372583,24 0,18.627417 0,12 C0,5.372583 5.372583,0 12,0 C18.627417,0 24,5.372583 24,12 C24,18.627417 18.627417,24 12,24 L12,24 Z" id="Shape-Copy-2"></path>
        </g>
    </g>
</svg>