<?xml version="1.0" encoding="utf-8"?>
<!-- Generator: Adobe Illustrator 18.1.1, SVG Export Plug-In . SVG Version: 6.00 Build 0)  -->
<svg version="1.1" id="Layer_1" xmlns="http://www.w3.org/2000/svg" xmlns:xlink="http://www.w3.org/1999/xlink" x="0px" y="0px"
     viewBox="0 0 556.5 1396.1" style="enable-background:new 0 0 556.5 1396.1;" xml:space="preserve">
<style type="text/css">
    .st0{fill:#8487b2;}
</style>
<g>
    <path class="st0" d="M351,1389.2c0-1.4,1.1-2.5,2.5-2.5l0,0c1.4,0,2.5,1.1,2.5,2.5l0,0c0,1.4-1.1,2.5-2.5,2.5l0,0
        C352.1,1391.7,351,1390.6,351,1389.2z M351,1376.2c0-1.4,1.1-2.5,2.5-2.5l0,0c1.4,0,2.5,1.1,2.5,2.5l0,0c0,1.4-1.1,2.5-2.5,2.5l0,0
        C352.1,1378.7,351,1377.6,351,1376.2z M351,1363.2c0-1.4,1.1-2.5,2.5-2.5l0,0c1.4,0,2.5,1.1,2.5,2.5l0,0c0,1.4-1.1,2.5-2.5,2.5l0,0
        C352.1,1365.7,351,1364.6,351,1363.2z M351,1350.2c0-1.4,1.1-2.5,2.5-2.5l0,0c1.4,0,2.5,1.1,2.5,2.5l0,0c0,1.4-1.1,2.5-2.5,2.5l0,0
        C352.1,1352.7,351,1351.5,351,1350.2z M351,1337.2c0-1.4,1.1-2.5,2.5-2.5l0,0c1.4,0,2.5,1.1,2.5,2.5l0,0c0,1.4-1.1,2.5-2.5,2.5l0,0
        C352.1,1339.7,351,1338.5,351,1337.2z M354.6,1326.7c-1.3-0.4-2.1-1.8-1.7-3.1l0,0c0.4-1.3,1.8-2.1,3.1-1.7l0,0
        c1.3,0.4,2.1,1.8,1.7,3.1l0,0c-0.3,1.1-1.3,1.8-2.4,1.8l0,0C355,1326.8,354.8,1326.8,354.6,1326.7z M359.2,1314.6
        c-1.2-0.7-1.5-2.3-0.8-3.5l0,0c0.7-1.2,2.3-1.5,3.4-0.8l0,0c1.2,0.7,1.5,2.3,0.8,3.4l0,0c-0.5,0.8-1.3,1.2-2.1,1.2l0,0
        C360,1315,359.6,1314.9,359.2,1314.6z M366.9,1304.2c-0.9-1-0.8-2.6,0.2-3.5l0,0c1-0.9,2.6-0.9,3.5,0.2l0,0c0.9,1,0.9,2.6-0.2,3.5
        l0,0c-0.5,0.4-1.1,0.6-1.7,0.6l0,0C368.1,1305,367.4,1304.8,366.9,1304.2z M377.3,1296.4c-0.6-1.2-0.1-2.7,1.1-3.3l0,0
        c1.2-0.6,2.7-0.1,3.3,1.1l0,0c0.6,1.2,0.1,2.7-1.1,3.3l0,0l0,0l0,0c-0.4,0.2-0.7,0.3-1.1,0.3l0,0
        C378.6,1297.8,377.7,1297.2,377.3,1296.4z M389.4,1291.7c-0.2-1.4,0.7-2.7,2-2.9l0,0c1.4-0.2,2.6,0.7,2.9,2l0,0
        c0.2,1.4-0.7,2.6-2,2.9l0,0c-0.2,0-0.3,0-0.4,0l0,0C390.6,1293.7,389.6,1292.9,389.4,1291.7z M493.4,1290.5c0-1.4,1.1-2.5,2.5-2.5
        l0,0c1.4,0,2.5,1.1,2.5,2.5l0,0c0,1.4-1.1,2.5-2.5,2.5l0,0l0,0l0,0C494.5,1293,493.4,1291.9,493.4,1290.5z M480.4,1290.5
        c0-1.4,1.1-2.5,2.5-2.5l0,0c1.4,0,2.5,1.1,2.5,2.5l0,0c0,1.4-1.1,2.5-2.5,2.5l0,0l0,0l0,0C481.5,1293,480.4,1291.9,480.4,1290.5z
         M467.4,1290.5c0-1.4,1.1-2.5,2.5-2.5l0,0c1.4,0,2.5,1.1,2.5,2.5l0,0c0,1.4-1.1,2.5-2.5,2.5l0,0l0,0l0,0
        C468.5,1293,467.4,1291.9,467.4,1290.5z M454.4,1290.5c0-1.4,1.1-2.5,2.5-2.5l0,0c1.4,0,2.5,1.1,2.5,2.5l0,0c0,1.4-1.1,2.5-2.5,2.5
        l0,0l0,0l0,0C455.5,1293,454.4,1291.9,454.4,1290.5z M441.3,1290.5c0-1.4,1.1-2.5,2.5-2.5l0,0c1.4,0,2.5,1.1,2.5,2.5l0,0
        c0,1.4-1.1,2.5-2.5,2.5l0,0l0,0l0,0C442.5,1293,441.3,1291.9,441.3,1290.5z M428.3,1290.5c0-1.4,1.1-2.5,2.5-2.5l0,0
        c1.4,0,2.5,1.1,2.5,2.5l0,0c0,1.4-1.1,2.5-2.5,2.5l0,0l0,0l0,0C429.5,1293,428.3,1291.9,428.3,1290.5z M415.3,1290.5
        c0-1.4,1.1-2.5,2.5-2.5l0,0c1.4,0,2.5,1.1,2.5,2.5l0,0c0,1.4-1.1,2.5-2.5,2.5l0,0l0,0l0,0C416.4,1293,415.3,1291.9,415.3,1290.5z
         M402.3,1290.5c0-1.4,1.1-2.5,2.5-2.5l0,0c1.4,0,2.5,1.1,2.5,2.5l0,0c0,1.4-1.1,2.5-2.5,2.5l0,0l0,0l0,0
        C403.4,1293,402.3,1291.9,402.3,1290.5z M506.4,1290.6c-0.1-1.4,1-2.5,2.4-2.6l0,0c1.4,0,2.5,1,2.6,2.4l0,0c0,1.4-1,2.5-2.4,2.6
        l0,0l0,0l0,0c0,0-0.1,0-0.1,0l0,0C507.6,1293,506.5,1291.9,506.4,1290.6z M519.3,1289c-0.4-1.3,0.3-2.7,1.6-3.2l0,0
        c1.3-0.4,2.7,0.3,3.2,1.6l0,0c0.4,1.3-0.3,2.7-1.6,3.2l0,0c-0.3,0.1-0.5,0.1-0.8,0.1l0,0C520.6,1290.7,519.6,1290,519.3,1289z
         M531.2,1283.8c-0.8-1.1-0.5-2.7,0.7-3.5l0,0c1.1-0.8,2.7-0.5,3.5,0.7l0,0c0.8,1.1,0.5,2.7-0.6,3.5l0,0l0,0l0,0
        c-0.4,0.3-0.9,0.4-1.4,0.4l0,0C532.5,1284.9,531.7,1284.5,531.2,1283.8z M541.2,1275.6c-1.1-0.9-1.2-2.4-0.3-3.5l0,0
        c0.9-1.1,2.5-1.2,3.5-0.3l0,0c1.1,0.9,1.2,2.5,0.3,3.5l0,0c-0.5,0.6-1.2,0.9-1.9,0.9l0,0C542.3,1276.2,541.7,1276,541.2,1275.6z
         M548.6,1264.9c-1.3-0.6-1.8-2-1.3-3.3l0,0c0.5-1.3,2-1.8,3.3-1.3l0,0c1.3,0.5,1.8,2,1.3,3.3l0,0c-0.4,0.9-1.3,1.5-2.3,1.5l0,0
        C549.3,1265.1,548.9,1265.1,548.6,1264.9z M552.8,1252.6c-1.4-0.2-2.3-1.4-2.1-2.8v0c0.2-1.4,1.4-2.3,2.8-2.2l0,0
        c1.4,0.2,2.3,1.4,2.2,2.8l0,0c-0.2,1.3-1.2,2.2-2.5,2.2l0,0C553,1252.7,552.9,1252.7,552.8,1252.6z M551,1237.2L551,1237.2
        c0-1.4,1.1-2.5,2.5-2.5l0,0c1.4,0,2.5,1.1,2.5,2.5l0,0c0,1.4-1.1,2.5-2.5,2.5l0,0C552.1,1239.7,551,1238.6,551,1237.2z M551,1224.2
        L551,1224.2c0-1.4,1.1-2.5,2.5-2.5l0,0c1.4,0,2.5,1.1,2.5,2.5l0,0c0,1.4-1.1,2.5-2.5,2.5l0,0C552.1,1226.7,551,1225.6,551,1224.2z
         M551,1211.2L551,1211.2c0-1.4,1.1-2.5,2.5-2.5l0,0c1.4,0,2.5,1.1,2.5,2.5l0,0c0,1.4-1.1,2.5-2.5,2.5l0,0
        C552.1,1213.7,551,1212.6,551,1211.2z M553.5,1200.7c-1.4,0-2.5-1.1-2.5-2.5l0,0c0-1.4,1.1-2.5,2.5-2.5l0,0c1.4,0,2.5,1.1,2.5,2.5
        l0,0C556,1199.6,554.9,1200.7,553.5,1200.7L553.5,1200.7C553.5,1200.7,553.5,1200.7,553.5,1200.7z M553.6,1187.7
        c-1.4,0-2.5-1.1-2.5-2.5l0,0c0-1.4,1.1-2.5,2.5-2.5l0,0c1.4,0,2.5,1.1,2.5,2.5l0,0C556.1,1186.6,554.9,1187.7,553.6,1187.7
        L553.6,1187.7C553.6,1187.7,553.6,1187.7,553.6,1187.7z M553.6,1174.7c-1.4,0-2.5-1.1-2.5-2.5l0,0c0-1.4,1.1-2.5,2.5-2.5l0,0
        c1.4,0,2.5,1.1,2.5,2.5l0,0C556.1,1173.6,555,1174.7,553.6,1174.7L553.6,1174.7L553.6,1174.7z M553.7,1161.7
        c-1.4,0-2.5-1.1-2.5-2.5l0,0c0-1.4,1.1-2.5,2.5-2.5l0,0c1.4,0,2.5,1.1,2.5,2.5l0,0C556.2,1160.6,555.1,1161.7,553.7,1161.7
        L553.7,1161.7L553.7,1161.7z M553.7,1148.7c-1.4,0-2.5-1.1-2.5-2.5l0,0c0-1.4,1.1-2.5,2.5-2.5l0,0c1.4,0,2.5,1.1,2.5,2.5l0,0
        C556.2,1147.6,555.1,1148.7,553.7,1148.7L553.7,1148.7L553.7,1148.7z M553.8,1135.7c-1.4,0-2.5-1.1-2.5-2.5l0,0
        c0-1.4,1.1-2.5,2.5-2.5l0,0c1.4,0,2.5,1.1,2.5,2.5l0,0C556.3,1134.6,555.2,1135.7,553.8,1135.7L553.8,1135.7
        C553.8,1135.7,553.8,1135.7,553.8,1135.7z M553.9,1122.7c-1.4,0-2.5-1.1-2.5-2.5l0,0c0-1.4,1.1-2.5,2.5-2.5l0,0
        c1.4,0,2.5,1.1,2.5,2.5l0,0C556.4,1121.6,555.2,1122.7,553.9,1122.7L553.9,1122.7C553.9,1122.7,553.9,1122.7,553.9,1122.7z
         M553.9,1109.7c-1.4,0-2.5-1.1-2.5-2.5l0,0c0-1.4,1.1-2.5,2.5-2.5l0,0c1.4,0,2.5,1.1,2.5,2.5l0,0
        C556.4,1108.6,555.3,1109.7,553.9,1109.7L553.9,1109.7C553.9,1109.7,553.9,1109.7,553.9,1109.7z M549.7,1095
        c-0.3-1.3,0.5-2.7,1.8-3l0,0c1.4-0.3,2.7,0.5,3,1.9l0,0c0.3,1.3-0.5,2.7-1.9,3l0,0c-0.2,0-0.4,0.1-0.6,0.1l0,0
        C551,1096.9,550,1096.1,549.7,1095z M546.7,1082.3c-0.3-1.3,0.5-2.7,1.8-3l0,0c1.3-0.3,2.7,0.5,3,1.8l0,0c0.3,1.3-0.5,2.7-1.9,3
        l0,0c-0.2,0-0.4,0.1-0.6,0.1l0,0C548,1084.2,547,1083.5,546.7,1082.3z M543.7,1069.7c-0.3-1.3,0.5-2.7,1.8-3l0,0
        c1.3-0.3,2.7,0.5,3,1.8l0,0c0.3,1.4-0.5,2.7-1.9,3l0,0c-0.2,0-0.4,0.1-0.6,0.1l0,0C545,1071.6,544,1070.8,543.7,1069.7z
         M544.2,1058.8c-1.4,0-2.5-1.1-2.5-2.5l0,0c0-1.4,1.1-2.5,2.5-2.5l0,0c1.4,0,2.5,1.1,2.5,2.5l0,0
        C546.7,1057.7,545.6,1058.8,544.2,1058.8L544.2,1058.8L544.2,1058.8z M544.2,1045.8c-1.4,0-2.5-1.1-2.5-2.5l0,0
        c0-1.4,1.1-2.5,2.5-2.5l0,0c1.4,0,2.5,1.1,2.5,2.5l0,0C546.7,1044.7,545.6,1045.8,544.2,1045.8L544.2,1045.8
        C544.2,1045.8,544.2,1045.8,544.2,1045.8z M544.3,1032.8c-1.4,0-2.5-1.1-2.5-2.5l0,0c0-1.4,1.1-2.5,2.5-2.5l0,0
        c1.4,0,2.5,1.1,2.5,2.5l0,0C546.8,1031.7,545.7,1032.8,544.3,1032.8L544.3,1032.8C544.3,1032.8,544.3,1032.8,544.3,1032.8z
         M544.3,1019.8c-1.4,0-2.5-1.1-2.5-2.5l0,0c0-1.4,1.1-2.5,2.5-2.5l0,0c1.4,0,2.5,1.1,2.5,2.5l0,0
        C546.9,1018.7,545.7,1019.8,544.3,1019.8L544.3,1019.8L544.3,1019.8z M544.4,1006.8c-1.4,0-2.5-1.1-2.5-2.5l0,0
        c0-1.4,1.1-2.5,2.5-2.5l0,0c1.4,0,2.5,1.1,2.5,2.5l0,0C546.9,1005.7,545.8,1006.8,544.4,1006.8L544.4,1006.8
        C544.4,1006.8,544.4,1006.8,544.4,1006.8z M544.5,993.8c-1.4,0-2.5-1.1-2.5-2.5l0,0c0-1.4,1.1-2.5,2.5-2.5l0,0
        c1.4,0,2.5,1.1,2.5,2.5l0,0C547,992.7,545.9,993.8,544.5,993.8L544.5,993.8C544.5,993.8,544.5,993.8,544.5,993.8z M542,978.3
        c0-1.4,1.1-2.5,2.5-2.5l0,0c1.4,0,2.5,1.1,2.5,2.5l0,0l0,0l0,0c0,1.4-1.1,2.5-2.5,2.5l0,0C543.1,980.8,542,979.7,542,978.3z
         M542,965.3c0-1.4,1.1-2.5,2.5-2.5l0,0c1.4,0,2.5,1.1,2.5,2.5l0,0l0,0l0,0c0,1.4-1.1,2.5-2.5,2.5l0,0
        C543.1,967.8,542,966.7,542,965.3z M542,952.3c0-1.4,1.1-2.5,2.5-2.5l0,0c1.4,0,2.5,1.1,2.5,2.5l0,0l0,0l0,0c0,1.4-1.1,2.5-2.5,2.5
        l0,0C543.1,954.8,542,953.7,542,952.3z M542,939.3c0-1.4,1.1-2.5,2.5-2.5l0,0c1.4,0,2.5,1.1,2.5,2.5l0,0l0,0l0,0
        c0,1.4-1.1,2.5-2.5,2.5l0,0C543.1,941.8,542,940.7,542,939.3z M541.7,926.6c-0.2-1.4,0.8-2.6,2.2-2.8l0,0c1.4-0.2,2.6,0.8,2.8,2.2
        l0,0c0.2,1.4-0.8,2.6-2.2,2.8l0,0c-0.1,0-0.2,0-0.3,0l0,0C542.9,928.8,541.8,927.9,541.7,926.6z M538.5,914.8L538.5,914.8
        c-0.5-1.3,0-2.7,1.3-3.3l0,0c1.3-0.5,2.7,0.1,3.3,1.3l0,0c0.5,1.3,0,2.7-1.3,3.3l0,0c-0.3,0.1-0.6,0.2-1,0.2l0,0
        C539.8,916.3,538.9,915.7,538.5,914.8z M532.1,904.3c-0.9-1.1-0.7-2.6,0.4-3.5l0,0c1.1-0.9,2.7-0.7,3.5,0.4l0,0
        c0.9,1.1,0.7,2.7-0.4,3.5l0,0c-0.5,0.4-1,0.6-1.6,0.6l0,0C533.4,905.2,532.6,904.9,532.1,904.3z M523.2,895.9
        c-1.1-0.8-1.4-2.3-0.6-3.5l0,0c0.8-1.1,2.3-1.4,3.5-0.6l0,0c1.1,0.8,1.4,2.3,0.6,3.5l0,0c-0.5,0.7-1.3,1.1-2,1.1l0,0
        C524.1,896.4,523.6,896.2,523.2,895.9z M512.2,890.4c-1.3-0.5-2-1.9-1.6-3.2l0,0c0.4-1.3,1.9-2,3.2-1.5l0,0c0,0,0,0,0,0l0,0
        c1.3,0.5,2,1.9,1.6,3.2l0,0c-0.4,1-1.3,1.7-2.4,1.7l0,0C512.8,890.5,512.5,890.5,512.2,890.4z M500.2,888.1
        c-1.4-0.1-2.5-1.2-2.4-2.6l0,0c0.1-1.4,1.2-2.5,2.6-2.4l0,0c1.4,0.1,2.4,1.2,2.4,2.6l0,0c-0.1,1.3-1.2,2.4-2.5,2.4l0,0
        C500.3,888.1,500.2,888.1,500.2,888.1z M484.8,885.5c0-1.4,1.1-2.5,2.5-2.5l0,0c1.4,0,2.5,1.1,2.5,2.5l0,0c0,1.4-1.1,2.5-2.5,2.5
        l0,0C485.9,888,484.8,886.9,484.8,885.5z M471.7,885.5c0-1.4,1.1-2.5,2.5-2.5l0,0c1.4,0,2.5,1.1,2.5,2.5l0,0c0,1.4-1.1,2.5-2.5,2.5
        l0,0C472.8,888,471.7,886.9,471.7,885.5z M458.7,885.5c0-1.4,1.1-2.5,2.5-2.5l0,0c1.4,0,2.5,1.1,2.5,2.5l0,0c0,1.4-1.1,2.5-2.5,2.5
        l0,0C459.8,888,458.7,886.9,458.7,885.5z M445.6,885.5c0-1.4,1.1-2.5,2.5-2.5l0,0c1.4,0,2.5,1.1,2.5,2.5l0,0c0,1.4-1.1,2.5-2.5,2.5
        l0,0C446.7,888,445.6,886.9,445.6,885.5z M432.6,885.5c0-1.4,1.1-2.5,2.5-2.5l0,0c1.4,0,2.5,1.1,2.5,2.5l0,0c0,1.4-1.1,2.5-2.5,2.5
        l0,0C433.7,888,432.6,886.9,432.6,885.5z M419.5,885.5c0-1.4,1.1-2.5,2.5-2.5l0,0c1.4,0,2.5,1.1,2.5,2.5l0,0c0,1.4-1.1,2.5-2.5,2.5
        l0,0C420.7,888,419.5,886.9,419.5,885.5z M406.5,885.5c0-1.4,1.1-2.5,2.5-2.5l0,0c1.4,0,2.5,1.1,2.5,2.5l0,0c0,1.4-1.1,2.5-2.5,2.5
        l0,0C407.6,888,406.5,886.9,406.5,885.5z M393.5,885.5c0-1.4,1.1-2.5,2.5-2.5l0,0c1.4,0,2.5,1.1,2.5,2.5l0,0c0,1.4-1.1,2.5-2.5,2.5
        l0,0C394.6,888,393.5,886.9,393.5,885.5z M380.5,885.5c0-1.4,1.1-2.5,2.5-2.5l0,0c1.4,0,2.5,1.1,2.5,2.5l0,0c0,1.4-1.1,2.5-2.5,2.5
        l0,0C381.6,888,380.5,886.9,380.5,885.5z M367.4,885.5c0-1.4,1.1-2.5,2.5-2.5l0,0c1.4,0,2.5,1.1,2.5,2.5l0,0c0,1.4-1.1,2.5-2.5,2.5
        l0,0C368.5,888,367.4,886.9,367.4,885.5z M354.4,885.5c0-1.4,1.1-2.5,2.5-2.5l0,0c1.4,0,2.5,1.1,2.5,2.5l0,0c0,1.4-1.1,2.5-2.5,2.5
        l0,0C355.5,888,354.4,886.9,354.4,885.5z M341.4,885.5c0-1.4,1.1-2.5,2.5-2.5l0,0c1.4,0,2.5,1.1,2.5,2.5l0,0c0,1.4-1.1,2.5-2.5,2.5
        l0,0C342.5,888,341.4,886.9,341.4,885.5z M328.3,885.5c0-1.4,1.1-2.5,2.5-2.5l0,0c1.4,0,2.5,1.1,2.5,2.5l0,0c0,1.4-1.1,2.5-2.5,2.5
        l0,0C329.5,888,328.3,886.9,328.3,885.5z M315.3,885.5c0-1.4,1.1-2.5,2.5-2.5l0,0c1.4,0,2.5,1.1,2.5,2.5l0,0c0,1.4-1.1,2.5-2.5,2.5
        l0,0C316.4,888,315.3,886.9,315.3,885.5z M302.3,885.5c0-1.4,1.1-2.5,2.5-2.5l0,0c1.4,0,2.5,1.1,2.5,2.5l0,0c0,1.4-1.1,2.5-2.5,2.5
        l0,0C303.4,888,302.3,886.9,302.3,885.5z M289.3,885.5c0-1.4,1.1-2.5,2.5-2.5l0,0c1.4,0,2.5,1.1,2.5,2.5l0,0c0,1.4-1.1,2.5-2.5,2.5
        l0,0C290.4,888,289.3,886.9,289.3,885.5z M276.2,885.5c0-1.4,1.1-2.5,2.5-2.5l0,0c1.4,0,2.5,1.1,2.5,2.5l0,0c0,1.4-1.1,2.5-2.5,2.5
        l0,0C277.3,888,276.2,886.9,276.2,885.5z M263.2,885.5c0-1.4,1.1-2.5,2.5-2.5l0,0c1.4,0,2.5,1.1,2.5,2.5l0,0c0,1.4-1.1,2.5-2.5,2.5
        l0,0C264.3,888,263.2,886.9,263.2,885.5z M250.2,885.5c0-1.4,1.1-2.5,2.5-2.5l0,0c1.4,0,2.5,1.1,2.5,2.5l0,0c0,1.4-1.1,2.5-2.5,2.5
        l0,0C251.3,888,250.2,886.9,250.2,885.5z M237.1,885.5c0-1.4,1.1-2.5,2.5-2.5l0,0c1.4,0,2.5,1.1,2.5,2.5l0,0c0,1.4-1.1,2.5-2.5,2.5
        l0,0C238.2,888,237.1,886.9,237.1,885.5z M224.1,885.5c0-1.4,1.1-2.5,2.5-2.5l0,0c1.4,0,2.5,1.1,2.5,2.5l0,0c0,1.4-1.1,2.5-2.5,2.5
        l0,0C225.2,888,224.1,886.9,224.1,885.5z M211,885.5c0-1.4,1.1-2.5,2.5-2.5l0,0c1.4,0,2.5,1.1,2.5,2.5l0,0c0,1.4-1.1,2.5-2.5,2.5
        l0,0C212.1,888,211,886.9,211,885.5z M198,885.5c0-1.4,1.1-2.5,2.5-2.5l0,0c1.4,0,2.5,1.1,2.5,2.5l0,0c0,1.4-1.1,2.5-2.5,2.5l0,0
        C199.1,888,198,886.9,198,885.5z M187.3,888c-1.4-0.1-2.4-1.3-2.4-2.6l0,0c0.1-1.4,1.2-2.4,2.6-2.4l0,0c1.4,0.1,2.4,1.3,2.4,2.6
        l0,0c-0.1,1.3-1.2,2.4-2.5,2.4l0,0C187.4,888,187.3,888,187.3,888z M173.9,885.3c-1.3-0.5-2-1.9-1.5-3.2l0,0c0.5-1.3,1.9-2,3.2-1.5
        l0,0c0,0,0,0,0,0l0,0c1.3,0.5,2,1.9,1.5,3.2l0,0c-0.4,1-1.3,1.7-2.4,1.7l0,0C174.4,885.5,174.2,885.4,173.9,885.3z M161.8,879.1
        c-1.1-0.8-1.4-2.4-0.6-3.5l0,0c0.8-1.1,2.4-1.4,3.5-0.6l0,0c1.1,0.8,1.4,2.4,0.6,3.5l0,0c-0.5,0.7-1.3,1.1-2,1.1l0,0
        C162.7,879.5,162.2,879.4,161.8,879.1z M151.8,869.7L151.8,869.7c-0.9-1.1-0.7-2.6,0.4-3.5l0,0c1.1-0.9,2.6-0.7,3.5,0.4l0,0l0,0
        l0,0c0.9,1.1,0.7,2.6-0.4,3.5l0,0c-0.5,0.4-1,0.6-1.6,0.6l0,0C153,870.7,152.3,870.3,151.8,869.7z M144.8,858
        c-0.5-1.3,0.1-2.7,1.3-3.3l0,0c1.3-0.5,2.7,0.1,3.3,1.3l0,0c0.5,1.3-0.1,2.7-1.3,3.3l0,0c-0.3,0.1-0.6,0.2-1,0.2l0,0
        C146.1,859.5,145.2,858.9,144.8,858z M141.3,844.8c-0.2-1.4,0.8-2.6,2.2-2.8l0,0c1.4-0.2,2.6,0.8,2.8,2.2l0,0
        c0.2,1.4-0.8,2.6-2.2,2.8l0,0c-0.1,0-0.2,0-0.3,0l0,0C142.6,847,141.5,846.1,141.3,844.8z M141,831.5c0-1.4,1.1-2.5,2.5-2.5l0,0
        c1.4,0,2.5,1.1,2.5,2.5l0,0c0,1.4-1.1,2.5-2.5,2.5l0,0C142.1,834,141,832.9,141,831.5z M141,818.5c0-1.4,1.1-2.5,2.5-2.5l0,0
        c1.4,0,2.5,1.1,2.5,2.5l0,0c0,1.4-1.1,2.5-2.5,2.5l0,0C142.1,821,141,819.9,141,818.5z M141,805.5c0-1.4,1.1-2.5,2.5-2.5l0,0
        c1.4,0,2.5,1.1,2.5,2.5l0,0c0,1.4-1.1,2.5-2.5,2.5l0,0C142.1,808,141,806.9,141,805.5z M141,792.5c0-1.4,1.1-2.5,2.5-2.5l0,0
        c1.4,0,2.5,1.1,2.5,2.5l0,0c0,1.4-1.1,2.5-2.5,2.5l0,0C142.1,795,141,793.9,141,792.5z M141,779.5c0-1.4,1.1-2.5,2.5-2.5l0,0
        c1.4,0,2.5,1.1,2.5,2.5l0,0c0,1.4-1.1,2.5-2.5,2.5l0,0C142.1,782,141,780.9,141,779.5z M141,766.5c0-1.4,1.1-2.5,2.5-2.5l0,0
        c1.4,0,2.5,1.1,2.5,2.5l0,0c0,1.4-1.1,2.5-2.5,2.5l0,0C142.1,769,141,767.9,141,766.5z M141,753.5c0-1.4,1.1-2.5,2.5-2.5l0,0
        c1.4,0,2.5,1.1,2.5,2.5l0,0c0,1.4-1.1,2.5-2.5,2.5l0,0C142.1,756,141,754.9,141,753.5z M141,740.5c0-1.4,1.1-2.5,2.5-2.5l0,0
        c1.4,0,2.5,1.1,2.5,2.5l0,0c0,1.4-1.1,2.5-2.5,2.5l0,0C142.1,743,141,741.9,141,740.5z M141,727.5c0-1.4,1.1-2.5,2.5-2.5l0,0
        c1.4,0,2.5,1.1,2.5,2.5l0,0c0,1.4-1.1,2.5-2.5,2.5l0,0C142.1,730,141,728.9,141,727.5z M141,714.5c0-1.4,1.1-2.5,2.5-2.5l0,0
        c1.4,0,2.5,1.1,2.5,2.5l0,0c0,1.4-1.1,2.5-2.5,2.5l0,0C142.1,717,141,715.9,141,714.5z M141,701.5c0-1.4,1.1-2.5,2.5-2.5l0,0
        c1.4,0,2.5,1.1,2.5,2.5l0,0c0,1.4-1.1,2.5-2.5,2.5l0,0C142.1,704,141,702.9,141,701.5z M141,688.5c0-1.4,1.1-2.5,2.5-2.5l0,0
        c1.4,0,2.5,1.1,2.5,2.5l0,0c0,1.4-1.1,2.5-2.5,2.5l0,0C142.1,691,141,689.9,141,688.5z M141,675.5c0-1.4,1.1-2.5,2.5-2.5l0,0
        c1.4,0,2.5,1.1,2.5,2.5l0,0c0,1.4-1.1,2.5-2.5,2.5l0,0C142.1,678,141,676.9,141,675.5z M141,662.5c0-1.4,1.1-2.5,2.5-2.5l0,0
        c1.4,0,2.5,1.1,2.5,2.5l0,0c0,1.4-1.1,2.5-2.5,2.5l0,0C142.1,665,141,663.9,141,662.5z M141,649.5c0-1.4,1.1-2.5,2.5-2.5l0,0
        c1.4,0,2.5,1.1,2.5,2.5l0,0c0,1.4-1.1,2.5-2.5,2.5l0,0C142.1,652,141,650.9,141,649.5z M141,636.5c0-1.4,1.1-2.5,2.5-2.5l0,0
        c1.4,0,2.5,1.1,2.5,2.5l0,0c0,1.4-1.1,2.5-2.5,2.5l0,0C142.1,639,141,637.9,141,636.5z M141,623.5c0-1.4,1.1-2.5,2.5-2.5l0,0
        c1.4,0,2.5,1.1,2.5,2.5l0,0c0,1.4-1.1,2.5-2.5,2.5l0,0C142.1,626,141,624.9,141,623.5z M141,610.5c0-1.4,1.1-2.5,2.5-2.5l0,0
        c1.4,0,2.5,1.1,2.5,2.5l0,0c0,1.4-1.1,2.5-2.5,2.5l0,0C142.1,613,141,611.9,141,610.5z M141,597.5c0-1.4,1.1-2.5,2.5-2.5l0,0
        c1.4,0,2.5,1.1,2.5,2.5l0,0c0,1.4-1.1,2.5-2.5,2.5l0,0C142.1,600,141,598.9,141,597.5z M141,584.5c0-1.4,1.1-2.5,2.5-2.5l0,0
        c1.4,0,2.5,1.1,2.5,2.5l0,0c0,1.4-1.1,2.5-2.5,2.5l0,0C142.1,587,141,585.9,141,584.5z M141,571.5c0-1.4,1.1-2.5,2.5-2.5l0,0
        c1.4,0,2.5,1.1,2.5,2.5l0,0c0,1.4-1.1,2.5-2.5,2.5l0,0C142.1,574,141,572.9,141,571.5z M141,558.5c0-1.4,1.1-2.5,2.5-2.5l0,0
        c1.4,0,2.5,1.1,2.5,2.5l0,0c0,1.4-1.1,2.5-2.5,2.5l0,0C142.1,561,141,559.9,141,558.5z M141,545.5c0-1.4,1.1-2.5,2.5-2.5l0,0
        c1.4,0,2.5,1.1,2.5,2.5l0,0c0,1.4-1.1,2.5-2.5,2.5l0,0C142.1,548,141,546.8,141,545.5z M143.5,535c-1.4-0.1-2.4-1.4-2.2-2.7l0,0
        c0.1-1.4,1.4-2.4,2.7-2.2l0,0c1.4,0.1,2.4,1.4,2.2,2.7l0,0l0,0l0,0c-0.1,1.3-1.2,2.3-2.5,2.3l0,0C143.6,535,143.6,535,143.5,535z
         M145.8,522.2c-1.3-0.5-1.9-2-1.4-3.2l0,0c0.5-1.3,2-1.9,3.2-1.4l0,0c1.3,0.5,1.9,2,1.4,3.2l0,0c-0.4,1-1.3,1.6-2.3,1.6l0,0
        C146.5,522.4,146.1,522.3,145.8,522.2z M151.6,510.6c-1.1-0.8-1.3-2.4-0.5-3.5l0,0c0.9-1.1,2.4-1.3,3.5-0.5l0,0
        c1.1,0.8,1.3,2.4,0.4,3.5l0,0c-0.5,0.6-1.2,1-2,1l0,0C152.6,511.1,152.1,511,151.6,510.6z M160.4,501c-0.8-1.1-0.6-2.7,0.5-3.5l0,0
        c1.1-0.8,2.7-0.6,3.5,0.5l0,0c0.8,1.1,0.6,2.7-0.5,3.5l0,0c-0.4,0.3-1,0.5-1.5,0.5l0,0C161.7,502.1,160.9,501.7,160.4,501z
         M171.5,494.3c-0.5-1.3,0.2-2.7,1.5-3.2l0,0c1.3-0.5,2.7,0.2,3.2,1.5l0,0c0.5,1.3-0.2,2.7-1.5,3.2l0,0c-0.3,0.1-0.6,0.1-0.9,0.1
        l0,0C172.8,495.9,171.9,495.3,171.5,494.3z M184,490.8c-0.1-1.4,0.9-2.6,2.3-2.7l0,0c1.4-0.1,2.6,0.9,2.7,2.3l0,0
        c0.1,1.4-0.9,2.6-2.3,2.7l0,0c-0.1,0-0.1,0-0.2,0l0,0C185.2,493.2,184.1,492.2,184,490.8z M483.8,490.5c0-1.4,1.1-2.5,2.5-2.5l0,0
        c1.4,0,2.5,1.1,2.5,2.5l0,0c0,1.4-1.1,2.5-2.5,2.5l0,0l0,0l0,0C485,493,483.8,491.9,483.8,490.5z M470.8,490.5
        c0-1.4,1.1-2.5,2.5-2.5l0,0c1.4,0,2.5,1.1,2.5,2.5l0,0c0,1.4-1.1,2.5-2.5,2.5l0,0l0,0l0,0C471.9,493,470.8,491.9,470.8,490.5z
         M457.7,490.5c0-1.4,1.1-2.5,2.5-2.5l0,0c1.4,0,2.5,1.1,2.5,2.5l0,0c0,1.4-1.1,2.5-2.5,2.5l0,0l0,0l0,0
        C458.9,493,457.7,491.9,457.7,490.5z M444.7,490.5c0-1.4,1.1-2.5,2.5-2.5l0,0c1.4,0,2.5,1.1,2.5,2.5l0,0c0,1.4-1.1,2.5-2.5,2.5l0,0
        l0,0l0,0C445.8,493,444.7,491.9,444.7,490.5z M431.7,490.5c0-1.4,1.1-2.5,2.5-2.5l0,0c1.4,0,2.5,1.1,2.5,2.5l0,0
        c0,1.4-1.1,2.5-2.5,2.5l0,0l0,0l0,0C432.8,493,431.7,491.9,431.7,490.5z M418.6,490.5c0-1.4,1.1-2.5,2.5-2.5l0,0
        c1.4,0,2.5,1.1,2.5,2.5l0,0c0,1.4-1.1,2.5-2.5,2.5l0,0l0,0l0,0C419.8,493,418.6,491.9,418.6,490.5z M405.6,490.5
        c0-1.4,1.1-2.5,2.5-2.5l0,0c1.4,0,2.5,1.1,2.5,2.5l0,0c0,1.4-1.1,2.5-2.5,2.5l0,0l0,0l0,0C406.7,493,405.6,491.9,405.6,490.5z
         M392.6,490.5c0-1.4,1.1-2.5,2.5-2.5l0,0c1.4,0,2.5,1.1,2.5,2.5l0,0c0,1.4-1.1,2.5-2.5,2.5l0,0l0,0l0,0
        C393.7,493,392.6,491.9,392.6,490.5z M379.5,490.5c0-1.4,1.1-2.5,2.5-2.5l0,0c1.4,0,2.5,1.1,2.5,2.5l0,0c0,1.4-1.1,2.5-2.5,2.5l0,0
        l0,0l0,0C380.7,493,379.5,491.9,379.5,490.5z M366.5,490.5c0-1.4,1.1-2.5,2.5-2.5l0,0c1.4,0,2.5,1.1,2.5,2.5l0,0
        c0,1.4-1.1,2.5-2.5,2.5l0,0l0,0l0,0C367.6,493,366.5,491.9,366.5,490.5z M353.5,490.5c0-1.4,1.1-2.5,2.5-2.5l0,0
        c1.4,0,2.5,1.1,2.5,2.5l0,0c0,1.4-1.1,2.5-2.5,2.5l0,0l0,0l0,0C354.6,493,353.5,491.9,353.5,490.5z M340.4,490.5
        c0-1.4,1.1-2.5,2.5-2.5l0,0c1.4,0,2.5,1.1,2.5,2.5l0,0c0,1.4-1.1,2.5-2.5,2.5l0,0l0,0l0,0C341.6,493,340.4,491.9,340.4,490.5z
         M327.4,490.5c0-1.4,1.1-2.5,2.5-2.5l0,0c1.4,0,2.5,1.1,2.5,2.5l0,0c0,1.4-1.1,2.5-2.5,2.5l0,0l0,0l0,0
        C328.5,493,327.4,491.9,327.4,490.5z M314.4,490.5c0-1.4,1.1-2.5,2.5-2.5l0,0c1.4,0,2.5,1.1,2.5,2.5l0,0c0,1.4-1.1,2.5-2.5,2.5l0,0
        l0,0l0,0C315.5,493,314.4,491.9,314.4,490.5z M301.4,490.5c0-1.4,1.1-2.5,2.5-2.5l0,0c1.4,0,2.5,1.1,2.5,2.5l0,0
        c0,1.4-1.1,2.5-2.5,2.5l0,0l0,0l0,0C302.5,493,301.4,491.9,301.4,490.5z M288.3,490.5c0-1.4,1.1-2.5,2.5-2.5l0,0
        c1.4,0,2.5,1.1,2.5,2.5l0,0c0,1.4-1.1,2.5-2.5,2.5l0,0l0,0l0,0C289.5,493,288.3,491.9,288.3,490.5z M275.3,490.5
        c0-1.4,1.1-2.5,2.5-2.5l0,0c1.4,0,2.5,1.1,2.5,2.5l0,0c0,1.4-1.1,2.5-2.5,2.5l0,0l0,0l0,0C276.4,493,275.3,491.9,275.3,490.5z
         M262.3,490.5c0-1.4,1.1-2.5,2.5-2.5l0,0c1.4,0,2.5,1.1,2.5,2.5l0,0c0,1.4-1.1,2.5-2.5,2.5l0,0l0,0l0,0
        C263.4,493,262.3,491.9,262.3,490.5z M249.2,490.5c0-1.4,1.1-2.5,2.5-2.5l0,0c1.4,0,2.5,1.1,2.5,2.5l0,0c0,1.4-1.1,2.5-2.5,2.5l0,0
        l0,0l0,0C250.4,493,249.2,491.9,249.2,490.5z M236.2,490.5c0-1.4,1.1-2.5,2.5-2.5l0,0c1.4,0,2.5,1.1,2.5,2.5l0,0
        c0,1.4-1.1,2.5-2.5,2.5l0,0l0,0l0,0C237.3,493,236.2,491.9,236.2,490.5z M223.2,490.5c0-1.4,1.1-2.5,2.5-2.5l0,0
        c1.4,0,2.5,1.1,2.5,2.5l0,0c0,1.4-1.1,2.5-2.5,2.5l0,0l0,0l0,0C224.3,493,223.2,491.9,223.2,490.5z M210.1,490.5
        c0-1.4,1.1-2.5,2.5-2.5l0,0c1.4,0,2.5,1.1,2.5,2.5l0,0c0,1.4-1.1,2.5-2.5,2.5l0,0l0,0l0,0C211.2,493,210.1,491.9,210.1,490.5z
         M197,490.5c0-1.4,1.1-2.5,2.5-2.5l0,0c1.4,0,2.5,1.1,2.5,2.5l0,0c0,1.4-1.1,2.5-2.5,2.5l0,0l0,0l0,0
        C198.2,493,197,491.9,197,490.5z M496.9,490.6c0-1.4,1-2.5,2.4-2.6l0,0c1.4,0,2.5,1,2.6,2.4l0,0c0,1.4-1,2.5-2.4,2.6l0,0
        c0,0,0,0,0,0l0,0c0,0,0,0-0.1,0l0,0C498.1,493,497,491.9,496.9,490.6z M509.8,489.1c-0.4-1.3,0.3-2.7,1.6-3.2l0,0
        c1.3-0.4,2.7,0.3,3.1,1.6l0,0c0.4,1.3-0.3,2.7-1.6,3.1l0,0c-0.2,0.1-0.5,0.1-0.8,0.1l0,0C511.1,490.8,510.1,490.1,509.8,489.1z
         M521.8,484.1c-0.8-1.1-0.5-2.7,0.7-3.5l0,0c1.1-0.8,2.7-0.5,3.5,0.7l0,0c0.8,1.1,0.5,2.7-0.7,3.5l0,0c0,0,0,0,0,0l0,0
        c-0.4,0.3-0.9,0.4-1.4,0.4l0,0C523,485.2,522.2,484.8,521.8,484.1z M531.9,476c-1-0.9-1.2-2.5-0.3-3.5l0,0c0.9-1.1,2.5-1.2,3.5-0.3
        l0,0c1.1,0.9,1.2,2.5,0.3,3.5l0,0c-0.5,0.6-1.2,0.9-1.9,0.9l0,0C532.9,476.5,532.4,476.4,531.9,476z M539.4,465.4
        c-1.3-0.6-1.8-2-1.3-3.3l0,0c0.6-1.3,2-1.8,3.3-1.2l0,0c1.3,0.6,1.8,2,1.2,3.3l0,0l0,0l0,0c-0.4,0.9-1.3,1.5-2.3,1.5l0,0
        C540.1,465.6,539.7,465.5,539.4,465.4z M543.7,453.1c-1.4-0.2-2.3-1.5-2.1-2.8l0,0c0.2-1.4,1.5-2.3,2.8-2.1l0,0
        c1.4,0.2,2.3,1.5,2.1,2.8l0,0c-0.2,1.2-1.2,2.1-2.5,2.1l0,0C543.9,453.1,543.8,453.1,543.7,453.1z M542,437.7
        c0-1.4,1.1-2.5,2.5-2.5l0,0c1.4,0,2.5,1.1,2.5,2.5l0,0l0,0l0,0c0,1.4-1.1,2.5-2.5,2.5l0,0C543.1,440.2,542,439.1,542,437.7z
         M542,424.7c0-1.4,1.1-2.5,2.5-2.5l0,0c1.4,0,2.5,1.1,2.5,2.5l0,0l0,0l0,0c0,1.4-1.1,2.5-2.5,2.5l0,0
        C543.1,427.2,542,426,542,424.7z M542,411.7c0-1.4,1.1-2.5,2.5-2.5l0,0c1.4,0,2.5,1.1,2.5,2.5l0,0l0,0l0,0c0,1.4-1.1,2.5-2.5,2.5
        l0,0C543.1,414.2,542,413,542,411.7z M542,398.7c0-1.4,1.1-2.5,2.5-2.5l0,0c1.4,0,2.5,1.1,2.5,2.5l0,0c0,1.4-1.1,2.5-2.5,2.5l0,0
        C543.1,401.2,542,400,542,398.7z M542,385.7c0-1.4,1.1-2.5,2.5-2.5l0,0c1.4,0,2.5,1.1,2.5,2.5l0,0c0,1.4-1.1,2.5-2.5,2.5l0,0
        C543.1,388.2,542,387,542,385.7z M542,372.7c0-1.4,1.1-2.5,2.5-2.5l0,0c1.4,0,2.5,1.1,2.5,2.5l0,0c0,1.4-1.1,2.5-2.5,2.5l0,0
        C543.1,375.2,542,374,542,372.7z M542,359.7c0-1.4,1.1-2.5,2.5-2.5l0,0c1.4,0,2.5,1.1,2.5,2.5l0,0c0,1.4-1.1,2.5-2.5,2.5l0,0
        C543.1,362.2,542,361,542,359.7z M542,346.7c0-1.4,1.1-2.5,2.5-2.5l0,0c1.4,0,2.5,1.1,2.5,2.5l0,0c0,1.4-1.1,2.5-2.5,2.5l0,0
        C543.1,349.2,542,348,542,346.7z M542,333.7c0-1.4,1.1-2.5,2.5-2.5l0,0c1.4,0,2.5,1.1,2.5,2.5l0,0c0,1.4-1.1,2.5-2.5,2.5l0,0
        C543.1,336.2,542,335,542,333.7z M542,320.7c0-1.4,1.1-2.5,2.5-2.5l0,0c1.4,0,2.5,1.1,2.5,2.5l0,0c0,1.4-1.1,2.5-2.5,2.5l0,0
        C543.1,323.2,542,322,542,320.7z M542,307.7c0-1.4,1.1-2.5,2.5-2.5l0,0c1.4,0,2.5,1.1,2.5,2.5l0,0c0,1.4-1.1,2.5-2.5,2.5l0,0
        C543.1,310.2,542,309,542,307.7z M542,294.7c0-1.4,1.1-2.5,2.5-2.5l0,0c1.4,0,2.5,1.1,2.5,2.5l0,0c0,1.4-1.1,2.5-2.5,2.5l0,0
        C543.1,297.2,542,296,542,294.7z M542,281.7c0-1.4,1.1-2.5,2.5-2.5l0,0c1.4,0,2.5,1.1,2.5,2.5l0,0c0,1.4-1.1,2.5-2.5,2.5l0,0
        C543.1,284.2,542,283,542,281.7z M542,268.7c0-1.4,1.1-2.5,2.5-2.5l0,0c1.4,0,2.5,1.1,2.5,2.5l0,0c0,1.4-1.1,2.5-2.5,2.5l0,0
        C543.1,271.2,542,270,542,268.7z M542,255.7c0-1.4,1.1-2.5,2.5-2.5l0,0c1.4,0,2.5,1.1,2.5,2.5l0,0c0,1.4-1.1,2.5-2.5,2.5l0,0
        C543.1,258.2,542,257,542,255.7z M542,242.7c0-1.4,1.1-2.5,2.5-2.5l0,0c1.4,0,2.5,1.1,2.5,2.5l0,0c0,1.4-1.1,2.5-2.5,2.5l0,0
        C543.1,245.2,542,244,542,242.7z M542,229.7c0-1.4,1.1-2.5,2.5-2.5l0,0c1.4,0,2.5,1.1,2.5,2.5l0,0c0,1.4-1.1,2.5-2.5,2.5l0,0
        C543.1,232.2,542,231,542,229.7z M542,216.7c0-1.4,1.1-2.5,2.5-2.5l0,0c1.4,0,2.5,1.1,2.5,2.5l0,0c0,1.4-1.1,2.5-2.5,2.5l0,0
        C543.1,219.2,542,218,542,216.7z M542,203.7c0-1.4,1.1-2.5,2.5-2.5l0,0c1.4,0,2.5,1.1,2.5,2.5l0,0c0,1.4-1.1,2.5-2.5,2.5l0,0
        C543.1,206.2,542,205,542,203.7z M542,190.7c0-1.4,1.1-2.5,2.5-2.5l0,0c1.4,0,2.5,1.1,2.5,2.5l0,0c0,1.4-1.1,2.5-2.5,2.5l0,0
        C543.1,193.2,542,192,542,190.7z M542,177.7c0-1.4,1.1-2.5,2.5-2.5l0,0c1.4,0,2.5,1.1,2.5,2.5l0,0l0,0l0,0c0,1.4-1.1,2.5-2.5,2.5
        l0,0C543.1,180.2,542,179,542,177.7z M542,164.7c0-1.4,1.1-2.5,2.5-2.5l0,0c1.4,0,2.5,1.1,2.5,2.5l0,0l0,0l0,0
        c0,1.4-1.1,2.5-2.5,2.5l0,0C543.1,167.2,542,166.1,542,164.7z M542,151.7c0-1.4,1.1-2.5,2.5-2.5l0,0c1.4,0,2.5,1.1,2.5,2.5l0,0
        c0,1.4-1.1,2.5-2.5,2.5l0,0c0,0,0,0,0,0l0,0C543.1,154.2,542,153.1,542,151.7z M540.2,139.6L540.2,139.6c-0.4-1.3,0.4-2.7,1.7-3.1
        l0,0c1.3-0.4,2.7,0.4,3.1,1.7l0,0c0.4,1.3-0.4,2.7-1.7,3.1l0,0c-0.2,0.1-0.5,0.1-0.7,0.1l0,0C541.5,141.4,540.5,140.7,540.2,139.6z
         M535.1,128.4c-0.8-1.2-0.4-2.7,0.8-3.4l0,0c1.2-0.8,2.7-0.4,3.5,0.8l0,0c0.7,1.2,0.4,2.7-0.8,3.5l0,0c-0.4,0.3-0.9,0.4-1.3,0.4
        l0,0C536.4,129.6,535.6,129.2,535.1,128.4z M527.2,119.1c-1-0.9-1.1-2.5-0.2-3.5l0,0c0.9-1,2.5-1.1,3.5-0.2l0,0
        c1,0.9,1.1,2.5,0.2,3.5l0,0c-0.5,0.6-1.2,0.8-1.9,0.8l0,0C528.2,119.7,527.6,119.5,527.2,119.1z M517,112.3
        c-1.2-0.6-1.8-2.1-1.2-3.3l0,0c0.6-1.2,2.1-1.8,3.3-1.2l0,0c1.2,0.6,1.8,2.1,1.2,3.3l0,0c-0.4,0.9-1.3,1.4-2.3,1.4l0,0
        C517.7,112.6,517.3,112.5,517,112.3z M505.3,108.6c-1.4-0.2-2.3-1.5-2.1-2.9l0,0c0.2-1.4,1.5-2.3,2.9-2l0,0c0,0,0,0,0,0l0,0
        c1.4,0.2,2.3,1.5,2.1,2.9l0,0c-0.2,1.2-1.3,2.1-2.5,2.1l0,0C505.5,108.7,505.4,108.6,505.3,108.6z M490.2,105.5
        c0-1.4,1.1-2.5,2.5-2.5l0,0c1.4,0,2.5,1.1,2.5,2.5l0,0c0,1.4-1.1,2.5-2.5,2.5l0,0C491.3,108,490.2,106.9,490.2,105.5z M477.1,105.5
        c0-1.4,1.1-2.5,2.5-2.5l0,0c1.4,0,2.5,1.1,2.5,2.5l0,0c0,1.4-1.1,2.5-2.5,2.5l0,0C478.2,108,477.1,106.9,477.1,105.5z M464,105.5
        c0-1.4,1.1-2.5,2.5-2.5l0,0c1.4,0,2.5,1.1,2.5,2.5l0,0c0,1.4-1.1,2.5-2.5,2.5l0,0C465.1,108,464,106.9,464,105.5z M451,105.5
        c0-1.4,1.1-2.5,2.5-2.5l0,0c1.4,0,2.5,1.1,2.5,2.5l0,0c0,1.4-1.1,2.5-2.5,2.5l0,0C452.1,108,451,106.9,451,105.5z M437.9,105.5
        c0-1.4,1.1-2.5,2.5-2.5l0,0c1.4,0,2.5,1.1,2.5,2.5l0,0c0,1.4-1.1,2.5-2.5,2.5l0,0C439,108,437.9,106.9,437.9,105.5z M424.9,105.5
        c0-1.4,1.1-2.5,2.5-2.5l0,0c1.4,0,2.5,1.1,2.5,2.5l0,0c0,1.4-1.1,2.5-2.5,2.5l0,0C426,108,424.9,106.9,424.9,105.5z M411.9,105.5
        c0-1.4,1.1-2.5,2.5-2.5l0,0c1.4,0,2.5,1.1,2.5,2.5l0,0c0,1.4-1.1,2.5-2.5,2.5l0,0C413,108,411.9,106.9,411.9,105.5z M398.8,105.5
        c0-1.4,1.1-2.5,2.5-2.5l0,0c1.4,0,2.5,1.1,2.5,2.5l0,0c0,1.4-1.1,2.5-2.5,2.5l0,0C400,108,398.8,106.9,398.8,105.5z M385.8,105.5
        c0-1.4,1.1-2.5,2.5-2.5l0,0c1.4,0,2.5,1.1,2.5,2.5l0,0c0,1.4-1.1,2.5-2.5,2.5l0,0C386.9,108,385.8,106.9,385.8,105.5z M372.8,105.5
        c0-1.4,1.1-2.5,2.5-2.5l0,0c1.4,0,2.5,1.1,2.5,2.5l0,0c0,1.4-1.1,2.5-2.5,2.5l0,0C373.9,108,372.8,106.9,372.8,105.5z M359.8,105.5
        c0-1.4,1.1-2.5,2.5-2.5l0,0c1.4,0,2.5,1.1,2.5,2.5l0,0c0,1.4-1.1,2.5-2.5,2.5l0,0C360.9,108,359.8,106.9,359.8,105.5z M346.7,105.5
        c0-1.4,1.1-2.5,2.5-2.5l0,0c1.4,0,2.5,1.1,2.5,2.5l0,0c0,1.4-1.1,2.5-2.5,2.5l0,0C347.8,108,346.7,106.9,346.7,105.5z M333.7,105.5
        c0-1.4,1.1-2.5,2.5-2.5l0,0c1.4,0,2.5,1.1,2.5,2.5l0,0c0,1.4-1.1,2.5-2.5,2.5l0,0C334.8,108,333.7,106.9,333.7,105.5z M320.7,105.5
        c0-1.4,1.1-2.5,2.5-2.5l0,0c1.4,0,2.5,1.1,2.5,2.5l0,0c0,1.4-1.1,2.5-2.5,2.5l0,0C321.8,108,320.7,106.9,320.7,105.5z M307.6,105.5
        c0-1.4,1.1-2.5,2.5-2.5l0,0c1.4,0,2.5,1.1,2.5,2.5l0,0c0,1.4-1.1,2.5-2.5,2.5l0,0C308.8,108,307.6,106.9,307.6,105.5z M294.6,105.5
        c0-1.4,1.1-2.5,2.5-2.5l0,0c1.4,0,2.5,1.1,2.5,2.5l0,0c0,1.4-1.1,2.5-2.5,2.5l0,0C295.7,108,294.6,106.9,294.6,105.5z M281.6,105.5
        c0-1.4,1.1-2.5,2.5-2.5l0,0c1.4,0,2.5,1.1,2.5,2.5l0,0c0,1.4-1.1,2.5-2.5,2.5l0,0C282.7,108,281.6,106.9,281.6,105.5z M268.6,105.5
        c0-1.4,1.1-2.5,2.5-2.5l0,0c1.4,0,2.5,1.1,2.5,2.5l0,0c0,1.4-1.1,2.5-2.5,2.5l0,0C269.7,108,268.6,106.9,268.6,105.5z M255.5,105.5
        c0-1.4,1.1-2.5,2.5-2.5l0,0c1.4,0,2.5,1.1,2.5,2.5l0,0c0,1.4-1.1,2.5-2.5,2.5l0,0C256.7,108,255.5,106.9,255.5,105.5z M242.5,105.5
        c0-1.4,1.1-2.5,2.5-2.5l0,0c1.4,0,2.5,1.1,2.5,2.5l0,0c0,1.4-1.1,2.5-2.5,2.5l0,0C243.7,108,242.5,106.9,242.5,105.5z M229.5,105.5
        c0-1.4,1.1-2.5,2.5-2.5l0,0c1.4,0,2.5,1.1,2.5,2.5l0,0c0,1.4-1.1,2.5-2.5,2.5l0,0C230.6,108,229.5,106.9,229.5,105.5z M216.5,105.5
        c0-1.4,1.1-2.5,2.5-2.5l0,0l0,0l0,0c1.4,0,2.5,1.1,2.5,2.5l0,0c0,1.4-1.1,2.5-2.5,2.5l0,0C217.6,108,216.5,106.9,216.5,105.5z
         M203.5,105.5c0-1.4,1.1-2.5,2.5-2.5l0,0c1.4,0,2.5,1.1,2.5,2.5l0,0c0,1.4-1.1,2.5-2.5,2.5l0,0C204.6,108,203.5,106.9,203.5,105.5z
         M190.4,105.5c0-1.4,1.1-2.5,2.5-2.5l0,0c1.4,0,2.5,1.1,2.5,2.5l0,0c0,1.4-1.1,2.5-2.5,2.5l0,0C191.6,108,190.4,106.9,190.4,105.5z
         M177.4,105.5c0-1.4,1.1-2.5,2.5-2.5l0,0c1.4,0,2.5,1.1,2.5,2.5l0,0c0,1.4-1.1,2.5-2.5,2.5l0,0C178.5,108,177.4,106.9,177.4,105.5z
         M164.4,105.5c0-1.4,1.1-2.5,2.5-2.5l0,0c1.4,0,2.5,1.1,2.5,2.5l0,0c0,1.4-1.1,2.5-2.5,2.5l0,0C165.5,108,164.4,106.9,164.4,105.5z
         M151.4,105.5c0-1.4,1.1-2.5,2.5-2.5l0,0c1.4,0,2.5,1.1,2.5,2.5l0,0c0,1.4-1.1,2.5-2.5,2.5l0,0C152.5,108,151.4,106.9,151.4,105.5z
         M138.3,105.5c0-1.4,1.1-2.5,2.5-2.5l0,0c1.4,0,2.5,1.1,2.5,2.5l0,0c0,1.4-1.1,2.5-2.5,2.5l0,0C139.5,108,138.3,106.9,138.3,105.5z
         M125.3,105.5c0-1.4,1.1-2.5,2.5-2.5l0,0c1.4,0,2.5,1.1,2.5,2.5l0,0c0,1.4-1.1,2.5-2.5,2.5l0,0C126.4,108,125.3,106.9,125.3,105.5z
         M112.3,105.5c0-1.4,1.1-2.5,2.5-2.5l0,0c1.4,0,2.5,1.1,2.5,2.5l0,0c0,1.4-1.1,2.5-2.5,2.5l0,0C113.4,108,112.3,106.9,112.3,105.5z
         M99.2,105.5c0-1.4,1.1-2.5,2.5-2.5l0,0c1.4,0,2.5,1.1,2.5,2.5l0,0c0,1.4-1.1,2.5-2.5,2.5l0,0C100.3,108,99.2,106.9,99.2,105.5z
         M86.2,105.5c0-1.4,1.1-2.5,2.5-2.5l0,0c1.4,0,2.5,1.1,2.5,2.5l0,0c0,1.4-1.1,2.5-2.5,2.5l0,0C87.3,108,86.2,106.9,86.2,105.5z
         M73.1,105.5c0-1.4,1.1-2.5,2.5-2.5l0,0c1.4,0,2.5,1.1,2.5,2.5l0,0c0,1.4-1.1,2.5-2.5,2.5l0,0C74.2,108,73.1,106.9,73.1,105.5z
         M60,105.5c0-1.4,1.1-2.5,2.5-2.5l0,0c1.4,0,2.5,1.1,2.5,2.5l0,0c0,1.4-1.1,2.5-2.5,2.5l0,0C61.2,108,60,106.9,60,105.5z
         M46.9,105.5c0-1.4,1.1-2.5,2.5-2.5l0,0c1.4,0,2.5,1.1,2.5,2.5l0,0c0,1.4-1.1,2.5-2.5,2.5l0,0C48.1,108,46.9,106.9,46.9,105.5z
         M35.9,106.3L35.9,106.3c-1.3-0.4-2.1-1.8-1.7-3.1l0,0c0.4-1.3,1.7-2.1,3.1-1.7l0,0c1.3,0.4,2.1,1.7,1.8,3.1l0,0
        c-0.3,1.1-1.3,1.8-2.4,1.8l0,0C36.4,106.4,36.1,106.3,35.9,106.3z M23.4,100.8L23.4,100.8c-1.2-0.7-1.5-2.3-0.8-3.4l0,0
        c0.7-1.2,2.3-1.5,3.4-0.8l0,0c1.2,0.7,1.5,2.3,0.8,3.4l0,0c-0.5,0.8-1.3,1.2-2.1,1.2l0,0C24.3,101.2,23.8,101.1,23.4,100.8z
         M12.9,92.1c-0.9-1-0.9-2.6,0.1-3.5l0,0c1-0.9,2.6-0.9,3.5,0.1l0,0l0,0l0,0c0.9,1,0.9,2.6-0.2,3.5l0,0c-0.5,0.4-1.1,0.7-1.7,0.7
        l0,0C14,92.9,13.4,92.7,12.9,92.1z M5.1,80.9c-0.6-1.2-0.1-2.7,1.1-3.4l0,0c1.2-0.6,2.7-0.1,3.4,1.1l0,0l0,0l0,0
        c0.6,1.2,0.1,2.7-1.1,3.4l0,0c-0.4,0.2-0.7,0.3-1.1,0.3l0,0C6.5,82.3,5.6,81.8,5.1,80.9z M0.8,67.9c-0.2-1.3,0.6-2.7,2-2.9l0,0
        c1.4-0.3,2.7,0.6,2.9,2l0,0c0.2,1.4-0.7,2.7-2,2.9l0,0c-0.1,0-0.3,0-0.4,0l0,0C2.1,70,1,69.1,0.8,67.9z M0,54.5
        C0,53.2,1.1,52,2.5,52l0,0C3.9,52,5,53.2,5,54.5l0,0C5,55.9,3.9,57,2.5,57l0,0C1.1,57,0,55.9,0,54.5z M0,41.5C0,40.1,1.1,39,2.5,39
        l0,0C3.9,39,5,40.1,5,41.5l0,0C5,42.9,3.9,44,2.5,44l0,0C1.1,44,0,42.9,0,41.5z M0,28.5C0,27.1,1.1,26,2.5,26l0,0
        C3.9,26,5,27.1,5,28.5l0,0C5,29.9,3.9,31,2.5,31l0,0C1.1,31,0,29.9,0,28.5z M0,15.5C0,14.1,1.1,13,2.5,13l0,0C3.9,13,5,14.1,5,15.5
        l0,0C5,16.9,3.9,18,2.5,18l0,0C1.1,18,0,16.9,0,15.5z M0,2.5C0,1.1,1.1,0,2.5,0l0,0C3.9,0,5,1.1,5,2.5l0,0C5,3.9,3.9,5,2.5,5l0,0
        C1.1,5,0,3.9,0,2.5z"/>
</g>
</svg>
